<?xml version="1.0" encoding="UTF-8"?>
<!-- Generated by Pixelmator Pro 3.3.2 -->
<svg width="1292" height="193" viewBox="0 0 1292 193" xmlns="http://www.w3.org/2000/svg" xmlns:xlink="http://www.w3.org/1999/xlink">
    <g id="Group">
        <path id="Rounded-Rectangle-copy" fill="#1eb100" fill-rule="evenodd" stroke="none" d="M 551 153 C 551 175.091385 568.90863 193 591 193 L 703 193 C 725.09137 193 743 175.091385 743 153 L 743 41 C 743 18.908615 725.09137 1 703 1 L 591 1 C 568.90863 1 551 18.908615 551 41 Z"/>
        <text id="S-EEKER-" xml:space="preserve"><tspan x="602.460293" y="143" font-family="Arial Rounded MT Bold" font-size="133" fill="#ffffff" letter-spacing="18.62" xml:space="preserve">S</tspan><tspan font-family="Arial Rounded MT Bold" font-size="133" fill="#000000" letter-spacing="18.62" xml:space="preserve"> EEKER</tspan></text>
    </g>
    <g id="g1">
        <path id="Rounded-Rectangle" fill="#ff4848" fill-rule="evenodd" stroke="none" d="M 0 152 C -0 174.091385 17.908609 192 40 192 L 152 192 C 174.091385 192 192 174.091385 192 152 L 192 40 C 192 17.908615 174.091385 0 152 0 L 40 0 C 17.908609 0 0 17.908615 0 40 Z"/>
        <text id="C-ITY" xml:space="preserve"><tspan x="44.321387" y="143" font-family="Arial Rounded MT Bold" font-size="133" fill="#ffffff" letter-spacing="18.62" xml:space="preserve">C</tspan><tspan font-family="Arial Rounded MT Bold" font-size="133" fill="#000000" letter-spacing="18.62" xml:space="preserve"> ITY</tspan></text>
    </g>
</svg>
